<?xml version="1.0" standalone="no"?>
<!DOCTYPE svg PUBLIC "-//W3C//DTD SVG 20010904//EN"
 "http://www.w3.org/TR/2001/REC-SVG-20010904/DTD/svg10.dtd">
<svg version="1.0" xmlns="http://www.w3.org/2000/svg"
 width="3825.000000pt" height="3825.000000pt" viewBox="0 0 3825.000000 3825.000000"
 preserveAspectRatio="xMidYMid meet">
<metadata>
Created by potrace 1.11, written by Peter Selinger 2001-2013
</metadata>
<g transform="translate(0.000000,3825.000000) scale(0.100000,-0.100000)"
fill="#000000" stroke="none">
<path d="M35520 28908 c-5148 -4424 -11209 -9634 -11915 -10240 -401 -345
-732 -628 -735 -628 -3 0 74 424 171 943 97 518 224 1201 283 1517 59 316 157
836 216 1155 60 319 158 846 219 1170 61 325 169 903 240 1285 72 382 168 900
215 1150 47 250 131 698 186 995 56 297 139 743 185 990 46 248 143 765 215
1150 72 385 176 941 231 1235 55 294 136 728 180 964 44 235 78 430 75 433 -2
3 -310 -258 -683 -579 -373 -321 -1375 -1184 -2228 -1918 -852 -734 -1971
-1697 -2485 -2139 -1347 -1159 -1916 -1650 -4055 -3491 -1050 -904 -2004
-1726 -2120 -1825 -115 -100 -892 -768 -1725 -1485 -1666 -1434 -1848 -1591
-7049 -6069 -1982 -1707 -3879 -3341 -4214 -3630 l-611 -526 640 -6 c351 -4
2185 -9 4074 -13 1889 -4 5379 -11 7755 -16 2376 -5 6539 -14 9250 -20 2712
-6 6548 -15 8525 -20 1977 -4 3598 -5 3601 -2 3 4 42 205 87 447 45 242 124
667 176 945 52 278 138 735 190 1015 315 1687 423 2262 471 2520 30 160 113
603 184 985 227 1214 377 2019 557 2980 96 514 206 1102 244 1305 194 1039
339 1815 415 2220 46 248 136 727 199 1065 63 338 172 919 241 1290 354 1894
863 4615 1116 5969 104 558 188 1018 187 1023 -2 4 -1130 -960 -2508 -2144z"/>
</g>
</svg>
